<svg xmlns="http://www.w3.org/2000/svg" viewBox="0 0 800 800">
			<defs>
				<linearGradient x1="50%" y1="0%" x2="50%" y2="100%" id="oooscillate-grad">
					<stop stop-color="#87CEFA" stop-opacity="1" offset="0%"></stop>
					<stop stop-color="#FF69B4" stop-opacity="1" offset="100%"></stop>
				</linearGradient>
				<linearGradient x1="0%" y1="50%" x2="100%" y2="50%" id="background-grad">
					<stop stop-color="#6A5ACD" stop-opacity="0.95" offset="0%"></stop>
					<stop stop-color="#00FFFF" stop-opacity="0.95" offset="100%"></stop>
				</linearGradient>
			</defs>

			<rect width="800" height="800" fill="#000000" />

			<g strokeWidth="2" stroke="url(#oooscillate-grad)" fill="none" strokeLinecap="round">
				<path d="M 800 448 Q 533 -100 400 400 Q 267 900 0 448" opacity="0.15"></path>
				<path d="M 800 420 Q 533 -100 400 400 Q 267 900 0 420" opacity="0.21"></path>
				<path d="M 800 392 Q 533 -100 400 400 Q 267 900 0 392" opacity="0.28"></path>
				<path d="M 800 364 Q 533 -100 400 400 Q 267 900 0 364" opacity="0.34"></path>
				<path d="M 800 336 Q 533 -100 400 400 Q 267 900 0 336" opacity="0.40"></path>
				<path d="M 800 308 Q 533 -100 400 400 Q 267 900 0 308" opacity="0.47"></path>
				<path d="M 800 280 Q 533 -100 400 400 Q 267 900 0 280" opacity="0.53"></path>
				<path d="M 800 252 Q 533 -100 400 400 Q 267 900 0 252" opacity="0.59"></path>
				<path d="M 800 224 Q 533 -100 400 400 Q 267 900 0 224" opacity="0.66"></path>
				<path d="M 800 196 Q 533 -100 400 400 Q 267 900 0 196" opacity="0.72"></path>
				<path d="M 800 168 Q 533 -100 400 400 Q 267 900 0 168" opacity="0.78"></path>
				<path d="M 800 140 Q 533 -100 400 400 Q 267 900 0 140" opacity="0.85"></path>
				<path d="M 800 112 Q 533 -100 400 400 Q 267 900 0 112" opacity="0.91"></path>
				<path d="M 800 84 Q 533 -100 400 400 Q 267 900 0 84" opacity="0.97"></path>
				<path d="M 800 56 Q 533 -100 400 400 Q 267 900 0 56" opacity="1.00"></path>
			</g>

			<g strokeWidth="2" stroke="url(#oooscillate-grad)" fill="none" strokeLinecap="round">
				<path d="M 0 448 Q 355.5 -100 711 400 Q 1066.5 900 1422 448" opacity="0.15"></path>
				<path d="M 0 420 Q 355.5 -100 711 400 Q 1066.5 900 1422 420" opacity="0.21"></path>
				<path d="M 0 392 Q 355.5 -100 711 400 Q 1066.5 900 1422 392" opacity="0.28"></path>
				<path d="M 0 364 Q 355.5 -100 711 400 Q 1066.5 900 1422 364" opacity="0.34"></path>
				<path d="M 0 336 Q 355.5 -100 711 400 Q 1066.5 900 1422 336" opacity="0.40"></path>
				<path d="M 0 308 Q 355.5 -100 711 400 Q 1066.5 900 1422 308" opacity="0.47"></path>
				<path d="M 0 280 Q 355.5 -100 711 400 Q 1066.5 900 1422 280" opacity="0.53"></path>
				<path d="M 0 252 Q 355.5 -100 711 400 Q 1066.5 900 1422 252" opacity="0.59"></path>
				<path d="M 0 224 Q 355.5 -100 711 400 Q 1066.5 900 1422 224" opacity="0.66"></path>
				<path d="M 0 196 Q 355.5 -100 711 400 Q 1066.5 900 1422 196" opacity="0.72"></path>
				<path d="M 0 168 Q 355.5 -100 711 400 Q 1066.5 900 1422 168" opacity="0.78"></path>
				<path d="M 0 140 Q 355.5 -100 711 400 Q 1066.5 900 1422 140" opacity="0.85"></path>
				<path d="M 0 112 Q 355.5 -100 711 400 Q 1066.5 900 1422 112" opacity="0.91"></path>
				<path d="M 0 84 Q 355.5 -100 711 400 Q 1066.5 900 1422 84" opacity="0.97"></path>
				<path d="M 0 56 Q 355.5 -100 711 400 Q 1066.5 900 1422 56" opacity="1.00"></path>
			</g>
		</svg>